#!OML:ASF E:/inclinewalkrobotboard/Project1/Captureday1/Session1/subject1.ASF
:FULLY-SPECIFIED
:DEGREES
363
root 0 0 0 1.9272184499917289 -10.682330885705381 0.8806036195186908
lowerback -0.24607499882595274 -1.7396176477796295 -2.673547115484554
upperback -0.327194321796452 -2.2753957115110155 1.671533553698735
thorax -0.07089280980186374 -1.142633130030311 3.150059349274532
lowerneck -25.044664848810626 -1.7765115812466865 -7.882037407151977
upperneck 27.491840732002125 0.023607604844242736 2.1866642984476643
head 13.409878434668206 -0.6185172332700164 2.2913589831270778
rclavicle -3.112195358996348E-15 1.4778626189395724E-15
rhumerus -32.165287316353734 -3.5467260904224 -80.73002298786373
rradius 30.494194390002665
rwrist 19.10646921407811
rhand -17.85039206521249 9.320929892953982
rfingers 7.125019999999926
rthumb 8.40954617545922 -20.453101881038005
lclavicle -6.245839419316004E-15 3.642779153161346E-15
lhumerus -22.673736549971363 -4.7438598115615225 91.92613790941397
lradius 62.81899882809422
lwrist 3.4619425067626652
lhand -27.653084230810645 21.830173884572154
lfingers 7.125020000000002
lthumb -1.080939629678622 51.882376246406466
rfemur -28.637471461608094 -0.9286369454607257 19.90513827434883
rtibia 63.83393262487348
rfoot -4.789617397152286 -7.992815690935588
rtoes 2.2584791528511046
lfemur -0.9299452890278948 -3.687080769184181 -28.796081998970234
ltibia 19.934028878952155
lfoot -20.968009488739664 2.3462106668388896
ltoes 5.393774997990981
364
root 0 0 0 1.9535476745517262 -10.717744191908903 0.8872838586790284
lowerback -0.26355404620486134 -1.7616595568559703 -2.6767612878579268
upperback -0.2906665033936501 -2.3050599906217957 1.6717319632860288
thorax -0.01803552996834723 -1.1593284877495833 3.152620547784224
lowerneck -25.09380368399426 -1.7775124600775642 -7.914618705801971
upperneck 27.581270425029082 0.03068053750493771 2.186918893557025
head 13.443963113939262 -0.6152750723287241 2.2977263585272656
rclavicle -2.7392599471209605E-15 1.097646703723086E-15
rhumerus -32.40205382190024 -3.0843705555204677 -80.25984652945644
rradius 30.210361312293834
rwrist 19.194016389549
rhand -17.92864266223117 9.324013646648643
rfingers 7.125019999999929
rthumb 8.334790363301888 -20.463106046375383
lclavicle -5.2219112180532596E-15 3.309536575236071E-15
lhumerus -23.00446492854311 -5.890601733459487 91.89654569325677
lradius 63.290107537837805
lwrist 3.8395346078221877
lhand -27.468033945986107 22.12604105140774
lfingers 7.125019999999998
lthumb -0.9037839100119012 52.19614859618031
rfemur -30.608594205731706 0.3844123413960645 18.722133870476306
rtibia 53.10509261035503
rfoot -4.552857145716816 -9.600041646045131
rtoes -0.5188482355944455
lfemur 2.7272199864810336 -3.8814136908553527 -29.53285824035379
ltibia 17.750570842215847
lfoot -22.02289575739728 1.5682215415991094
ltoes 2.3521903962538087
365
root 0 0 0 1.9748640682540355 -10.749139872446186 0.9010674196790405
lowerback -0.27222813079625263 -1.7820634883402289 -2.6806613915247084
upperback -0.26336489194329266 -2.332313916912126 1.680646892367394
thorax 0.018678534417097437 -1.1745578774779903 3.164899127422119
lowerneck -25.212556666594534 -1.78068366809983 -7.929959569582284
upperneck 27.481665818935724 0.038547995701020965 2.1929135231301062
head 13.424674866130474 -0.606376770160574 2.3009956559387352
rclavicle -1.5721629318507998E-15 3.1806503642427137E-16
rhumerus -32.801398384244635 -2.709337354447185 -79.58619780205927
rradius 29.778014797212883
rwrist 19.402479585842986
rhand -17.969049267496704 9.300111379114966
rfingers 7.1250199999999335
rthumb 8.295909916343453 -20.508063240720542
lclavicle -3.187759953932137E-15 2.667711671372807E-15
lhumerus -23.020042079494644 -6.861249762881797 91.67908697548026
lradius 63.83057198626065
lwrist 4.221359555545719
lhand -27.30219359004719 22.610088247372786
lfingers 7.125019999999992
lthumb -0.7427442027912381 52.698422602441106
rfemur -32.51954313888952 2.0122514769949404 17.306096552665302
rtibia 41.2732971961989
rfoot -4.2748933341878175 -11.24235461209119
rtoes -3.0333912305957833
lfemur 6.983495781892241 -4.2090373211120955 -30.085961212818617
ltibia 15.63143997411691
lfoot -21.853418652117696 0.21608646470773163
ltoes -1.1690293445492284
366
root 0 0 0 1.994728098100747 -10.780075594108881 0.9247444820199446
lowerback -0.2592979963062727 -1.8066470542861115 -2.68187684883186
upperback -0.23539778807899386 -2.3643259392306426 1.706547808819487
thorax 0.04445032376700486 -1.1924195475009214 3.19426079437825
lowerneck -25.46075749484723 -1.7834751263972142 -7.91852486462752
upperneck 27.076246530994222 0.055150767797969236 2.2005879239530763
head 13.318945519029308 -0.5843954883474637 2.2974521247702095
rclavicle 2.0804947268931185E-16 -7.419887562499239E-16
rhumerus -33.3172579918169 -2.5583780346100022 -78.84637137827735
rradius 29.28110307289634
rwrist 19.737648110571744
rhand -17.94717045844926 9.219224364891964
rfingers 7.12501999999994
rthumb 8.316547936931793 -20.61247454984811
lclavicle -4.991628923304666E-16 1.892579714887737E-15
lhumerus -22.822662823280623 -7.742160459703577 91.39226435282305
lradius 64.44338963251556
lwrist 4.538478564776585
lhand -27.211503449555853 23.173480702404213
lfingers 7.125019999999988
lthumb -0.6517846694796994 53.276619553401474
rfemur -33.166891065465606 3.1915338601275725 17.015833116445457
rtibia 33.50498639737317
rfoot -4.62504488598799 -12.081099817070484
rtoes -4.216928746984254
lfemur 12.953115986081853 -4.725039551287698 -30.305989751566997
ltibia 14.206845748295196
lfoot -19.11239299687889 -2.168322275337843
ltoes -5.523919723041033
367
root 0 0 0 2.011840815473071 -10.789581032650993 0.9578376313747865
lowerback -0.19727870074356235 -1.831677499254051 -2.6763864825342
upperback -0.2022684570147697 -2.3966205176822895 1.7628762926546675
thorax 0.04913442778577126 -1.2106634857215823 3.252686740686027
lowerneck -25.864716812798942 -1.7814942468913437 -7.860232260993156
upperneck 26.225364080798187 0.08446197184238757 2.216536566146865
head 13.081532551979574 -0.5422348912388025 2.2859373497526483
rclavicle 2.109600831927496E-15 -1.5770236688380093E-15
rhumerus -33.79396317558282 -2.744603532857844 -78.28677323787846
rradius 28.873913181234407
rwrist 20.104225371881263
rhand -17.86429731726603 9.09928846961444
rfingers 7.125019999999947
rthumb 8.395618039669491 -20.739618692120867
lclavicle 1.5085679259116054E-15 1.3381124842963356E-15
lhumerus -22.659111077485882 -8.42246910421693 91.22945296628912
lradius 64.93853784563693
lwrist 4.693466067600842
lhand -27.218105702931513 23.5539318352974
lfingers 7.125019999999984
lthumb -0.6541368800974396 53.66347464818548
rfemur -33.874390028207486 3.8351203654359622 17.309178182091006
rtibia 29.13168696506998
rfoot -4.825259284016251 -12.109096728110462
rtoes -4.154675182225087
lfemur 19.445414759258032 -5.049180720237709 -29.788736953657764
ltibia 16.211842129418436
lfoot -13.565302839108249 -5.896107785650454
ltoes -10.65226042268514
368
root 0 0 0 2.019910191967723 -10.749749445283713 0.9986157804189394
lowerback -0.07503663136895367 -1.846447733254196 -2.6664309471629157
upperback -0.17480285336864526 -2.4142209540716344 1.8530899776381973
thorax 0.013345898378128718 -1.2213801386842817 3.3446493545635247
lowerneck -26.413410329322932 -1.7814357994401493 -7.745016174158401
upperneck 24.852935832629832 0.11007170009584044 2.2643223452779777
head 12.68546633974733 -0.4837066959095463 2.271280018658632
rclavicle 3.646367717638808E-15 -2.0721570901372976E-15
rhumerus -34.16607773405778 -3.255099264709055 -77.97713886259223
rradius 28.603129667342795
rwrist 20.44099109673309
rhand -17.73418955554279 8.972849402559218
rfingers 7.125019999999952
rthumb 8.520423342379782 -20.85430912195824
lclavicle 1.8992632220113924E-15 8.191289311016222E-16
lhumerus -22.692772543466127 -8.774832044075639 91.21936508659306
lradius 65.1242504235673
lwrist 4.745017165765511
lhand -27.225490528117987 23.63744052732512
lfingers 7.125019999999982
lthumb -0.6604463260396818 53.74818736757273
rfemur -35.38316807685656 4.129831951810973 18.085078844882766
rtibia 26.77370458007949
rfoot -4.800709662700944 -11.745313063762705
rtoes -2.317511529305036
lfemur 20.94390587059566 -4.213703891592037 -27.556071872211565
ltibia 25.98747124354231
lfoot -6.412739474539494 -10.86671400305389
ltoes -15.00635658588628
